# 3ds Max Wavefront OBJ Exporter v0.99 - (c)2007 guruware
# File Created: 01.10.2023 18:08:08

mtllib ParedCocina.mtl

#
# object MS_Pared157
#

v  -2.3638 11.1933 2.7834
v  -2.6138 11.1933 2.7834
v  -2.6138 7.6933 2.7834
v  -2.3638 7.6933 2.7834
v  -2.6138 7.6933 -1.7166
v  -2.6138 11.1933 -1.7166
v  -6.8638 11.1933 -1.7166
v  -6.8638 7.6933 -1.7166
v  -6.8638 11.1933 2.7834
v  -6.8638 7.6933 2.7834
v  -8.9256 11.1933 2.7834
v  -8.9256 7.6933 2.7834
v  -2.6138 10.1933 1.2834
v  -2.6138 7.6933 1.2834
v  -2.6138 7.6933 -0.2166
v  -2.6138 10.1933 -0.2166
# 16 vertices

vn 0.0000 -0.0000 1.0000
vn -0.7071 0.0000 0.7071
vn -0.7071 -0.0000 0.7071
vn 0.7071 -0.0000 0.7071
vn -1.0000 0.0000 0.0000
vn -1.0000 0.0000 -0.0000
# 6 vertex normals

vt 0.9931 0.9961 0.0000
vt 0.9252 0.9961 0.0000
vt 0.9252 0.0039 0.0000
vt 0.9931 0.0039 0.0000
vt 1.2860 -0.0002 0.0000
vt 1.2860 1.0002 0.0000
vt 0.0713 1.0002 0.0000
vt 0.0713 -0.0002 0.0000
vt 1.1429 -0.0000 0.0000
vt 1.1429 1.0000 0.0000
vt -0.1429 1.0000 0.0000
vt -0.1429 -0.0000 0.0000
vt 1.3327 0.9961 0.0000
vt 0.7726 0.9961 0.0000
vt 0.7726 0.0039 0.0000
vt 1.3327 0.0039 0.0000
vt 1.1424 0.0004 0.0000
vt 1.1424 0.9996 0.0000
vt 0.7141 0.7141 0.0000
vt 0.7141 0.0004 0.0000
vt -0.1424 0.9996 0.0000
vt -0.1424 0.0004 0.0000
vt 0.2859 0.0004 0.0000
vt 0.2859 0.7141 0.0000
# 24 texture coords

o MS_Pared157
g MS_Pared157
usemtl wire_000000000
s off
f 1/1/1 2/2/2 3/3/3 4/4/1 
f 5/5/3 6/6/3 7/7/4 8/8/4 
f 8/9/4 7/10/4 9/11/4 10/12/4 
f 9/13/4 11/14/1 12/15/1 10/16/4 
s 1
f 3/17/3 2/18/2 13/19/5 14/20/5 
f 6/21/3 5/22/3 15/23/6 16/24/5 
f 2/18/2 6/21/3 16/24/5 13/19/5 
# 7 polygons

