# 3ds Max Wavefront OBJ Exporter v0.99 - (c)2007 guruware
# File Created: 25.09.2023 14:51:15

mtllib ParedCocina.mtl

#
# object MS_Pared003
#

v  -3.8638 11.1933 -1.9666
v  -2.3638 11.1933 -1.9666
v  -2.3638 7.6933 -1.9666
v  -3.8638 7.6933 -1.9666
v  -3.8638 11.1933 -1.7166
v  -3.8638 7.6933 -1.7166
v  -2.3638 11.1933 -1.7166
v  -2.3638 7.6933 -1.7166
# 8 vertices

vn -0.7071 -0.0000 -0.7071
vn 0.7071 0.0000 -0.7071
vn -0.7071 -0.0000 0.7071
vn 0.7071 0.0000 0.7071
# 4 vertex normals

vt 0.9252 0.9961 0.0000
vt 0.5020 0.9961 0.0000
vt 0.5020 0.0039 0.0000
vt 0.9252 0.0039 0.0000
vt 0.9931 0.9961 0.0000
vt 0.9931 0.0039 0.0000
vt 0.4291 0.9961 0.0000
vt 0.0057 0.9961 0.0000
vt 0.0057 0.0039 0.0000
vt 0.4291 0.0039 0.0000
# 10 texture coords

o MS_Pared003
g MS_Pared003
usemtl wire_000000000
s 1
f 1/1/1 2/2/2 3/3/2 4/4/1 
s off
f 5/5/3 1/1/1 4/4/1 6/6/3 
f 7/7/4 5/8/3 6/9/3 8/10/4 
f 8/10/4 3/3/2 2/2/2 7/7/4 
# 4 polygons

#
# object MS_Pared004
#

v  -5.3638 11.1933 -1.9666
v  -3.8638 11.1933 -1.9666
v  -3.8638 7.6933 -1.9666
v  -5.3638 7.6933 -1.9666
v  -5.3638 11.1933 -1.7166
v  -5.3638 7.6933 -1.7166
v  -3.8638 11.1933 -1.7166
v  -3.8638 7.6933 -1.7166
# 8 vertices

vn -0.7071 -0.0000 -0.7071
vn 0.7071 0.0000 -0.7071
vn -0.7071 -0.0000 0.7071
vn 0.7071 0.0000 0.7071
# 4 vertex normals

vt 0.9252 0.9961 0.0000
vt 0.5020 0.9961 0.0000
vt 0.5020 0.0039 0.0000
vt 0.9252 0.0039 0.0000
vt 0.9931 0.9961 0.0000
vt 0.9931 0.0039 0.0000
vt 0.4291 0.9961 0.0000
vt 0.0057 0.9961 0.0000
vt 0.0057 0.0039 0.0000
vt 0.4291 0.0039 0.0000
# 10 texture coords

o MS_Pared004
g MS_Pared004
usemtl wire_000000000
s 1
f 9/11/5 10/12/6 11/13/6 12/14/5 
s off
f 13/15/7 9/11/5 12/14/5 14/16/7 
f 15/17/8 13/18/7 14/19/7 16/20/8 
f 16/20/8 11/13/6 10/12/6 15/17/8 
# 4 polygons

#
# object MS_Pared005
#

v  -6.8638 11.1933 -1.9666
v  -5.3638 11.1933 -1.9666
v  -5.3638 7.6933 -1.9666
v  -6.8638 7.6933 -1.9666
v  -6.8638 11.1933 -1.7166
v  -6.8638 7.6933 -1.7166
v  -5.3638 11.1933 -1.7166
v  -5.3638 7.6933 -1.7166
# 8 vertices

vn -0.7071 -0.0000 -0.7071
vn 0.7071 0.0000 -0.7071
vn -0.7071 -0.0000 0.7071
vn 0.7071 0.0000 0.7071
# 4 vertex normals

vt 0.9252 0.9961 0.0000
vt 0.5020 0.9961 0.0000
vt 0.5020 0.0039 0.0000
vt 0.9252 0.0039 0.0000
vt 0.9931 0.9961 0.0000
vt 0.9931 0.0039 0.0000
vt 0.4291 0.9961 0.0000
vt 0.0057 0.9961 0.0000
vt 0.0057 0.0039 0.0000
vt 0.4291 0.0039 0.0000
# 10 texture coords

o MS_Pared005
g MS_Pared005
usemtl wire_000000000
s 1
f 17/21/9 18/22/10 19/23/10 20/24/9 
s off
f 21/25/11 17/21/9 20/24/9 22/26/11 
f 23/27/12 21/28/11 22/29/11 24/30/12 
f 24/30/12 19/23/10 18/22/10 23/27/12 
# 4 polygons

#
# object MS_Pared021
#

v  -2.6138 11.1933 -0.2166
v  -2.6138 11.1933 -1.7166
v  -2.6138 7.6933 -1.7166
v  -2.6138 7.6933 -0.2166
v  -2.3638 11.1933 -0.2166
v  -2.3638 7.6933 -0.2166
v  -2.3638 11.1933 -1.7166
v  -2.3638 7.6933 -1.7166
# 8 vertices

vn -0.7071 -0.0000 0.7071
vn -0.7071 0.0000 -0.7071
vn 0.7071 -0.0000 0.7071
vn 0.7071 0.0000 -0.7071
# 4 vertex normals

vt 0.9252 0.9961 0.0000
vt 0.5020 0.9961 0.0000
vt 0.5020 0.0039 0.0000
vt 0.9252 0.0039 0.0000
vt 0.9931 0.9961 0.0000
vt 0.9931 0.0039 0.0000
vt 0.4291 0.9961 0.0000
vt 0.0057 0.9961 0.0000
vt 0.0057 0.0039 0.0000
vt 0.4291 0.0039 0.0000
# 10 texture coords

o MS_Pared021
g MS_Pared021
usemtl wire_000000000
s 1
f 25/31/13 26/32/14 27/33/14 28/34/13 
s off
f 29/35/15 25/31/13 28/34/13 30/36/15 
f 31/37/16 29/38/15 30/39/15 32/40/16 
f 32/40/16 27/33/14 26/32/14 31/37/16 
# 4 polygons

#
# object MS_Pared022
#

v  -2.6138 11.1933 2.7834
v  -2.6138 11.1933 1.2834
v  -2.6138 7.6933 1.2834
v  -2.6138 7.6933 2.7834
v  -2.3638 11.1933 2.7834
v  -2.3638 7.6933 2.7834
v  -2.3638 11.1933 1.2834
v  -2.3638 7.6933 1.2834
# 8 vertices

vn -0.7071 -0.0000 0.7071
vn -0.7071 0.0000 -0.7071
vn 0.7071 -0.0000 0.7071
vn 0.7071 0.0000 -0.7071
# 4 vertex normals

vt 0.9252 0.9961 0.0000
vt 0.5020 0.9961 0.0000
vt 0.5020 0.0039 0.0000
vt 0.9252 0.0039 0.0000
vt 0.9931 0.9961 0.0000
vt 0.9931 0.0039 0.0000
vt 0.4291 0.9961 0.0000
vt 0.0057 0.9961 0.0000
vt 0.0057 0.0039 0.0000
vt 0.4291 0.0039 0.0000
# 10 texture coords

o MS_Pared022
g MS_Pared022
usemtl wire_000000000
s 1
f 33/41/17 34/42/18 35/43/18 36/44/17 
s off
f 37/45/19 33/41/17 36/44/17 38/46/19 
f 39/47/20 37/48/19 38/49/19 40/50/20 
f 40/50/20 35/43/18 34/42/18 39/47/20 
# 4 polygons

#
# object MS_Pared_Superior_Puerta006
#

v  -2.6138 10.1933 1.2834
v  -2.6138 11.1933 1.2834
v  -2.6138 11.1933 -0.2166
v  -2.6138 10.1933 -0.2166
v  -2.3638 10.1933 -0.2166
v  -2.3638 10.1933 1.2834
v  -2.3638 11.1933 -0.2166
v  -2.3638 11.1933 1.2834
# 8 vertices

vn -0.7071 -0.7071 0.0000
vn -1.0000 0.0000 0.0000
vn 0.7071 -0.7071 0.0000
vn 1.0000 -0.0000 -0.0000
# 4 vertex normals

vt 0.4241 0.7134 0.0000
vt 0.4241 0.9959 0.0000
vt 0.0058 0.9959 0.0000
vt 0.0058 0.7134 0.0000
vt 0.4242 0.7133 0.0000
vt 0.0058 0.7133 0.0000
vt 0.0058 0.4449 0.0000
vt 0.4242 0.4449 0.0000
vt 0.4242 0.9961 0.0000
vt 0.0058 0.9961 0.0000
# 10 texture coords

o MS_Pared_Superior_Puerta006
g MS_Pared_Superior_Puerta006
usemtl wire_000000000
s 1
f 41/51/21 42/52/22 43/53/22 44/54/21 
s off
f 45/55/23 46/56/23 41/57/21 44/58/21 
f 45/55/23 47/59/24 48/60/24 46/56/23 
# 3 polygons

#
# object MS_Pared026
#

v  -7.1138 11.1933 -0.2166
v  -7.1138 11.1933 -1.7166
v  -7.1138 7.6933 -1.7166
v  -7.1138 7.6933 -0.2166
v  -6.8638 11.1933 -0.2166
v  -6.8638 7.6933 -0.2166
v  -6.8638 11.1933 -1.7166
v  -6.8638 7.6933 -1.7166
# 8 vertices

vn -0.7071 -0.0000 0.7071
vn -0.7071 0.0000 -0.7071
vn 0.7071 -0.0000 0.7071
vn 0.7071 0.0000 -0.7071
# 4 vertex normals

vt 0.9252 0.9961 0.0000
vt 0.5020 0.9961 0.0000
vt 0.5020 0.0039 0.0000
vt 0.9252 0.0039 0.0000
vt 0.9931 0.9961 0.0000
vt 0.9931 0.0039 0.0000
vt 0.4291 0.9961 0.0000
vt 0.0057 0.9961 0.0000
vt 0.0057 0.0039 0.0000
vt 0.4291 0.0039 0.0000
# 10 texture coords

o MS_Pared026
g MS_Pared026
usemtl wire_000000000
s 1
f 49/61/25 50/62/26 51/63/26 52/64/25 
s off
f 53/65/27 49/61/25 52/64/25 54/66/27 
f 55/67/28 53/68/27 54/69/27 56/70/28 
f 56/70/28 51/63/26 50/62/26 55/67/28 
# 4 polygons

#
# object MS_Pared027
#

v  -7.1138 11.1933 2.7834
v  -7.1138 11.1933 1.2834
v  -7.1138 7.6933 1.2834
v  -7.1138 7.6933 2.7834
v  -6.8638 11.1933 2.7834
v  -6.8638 7.6933 2.7834
v  -6.8638 11.1933 1.2834
v  -6.8638 7.6933 1.2834
# 8 vertices

vn -0.7071 -0.0000 0.7071
vn -0.7071 0.0000 -0.7071
vn 0.7071 -0.0000 0.7071
vn 0.7071 0.0000 -0.7071
# 4 vertex normals

vt 0.9252 0.9961 0.0000
vt 0.5020 0.9961 0.0000
vt 0.5020 0.0039 0.0000
vt 0.9252 0.0039 0.0000
vt 0.9931 0.9961 0.0000
vt 0.9931 0.0039 0.0000
vt 0.4291 0.9961 0.0000
vt 0.0057 0.9961 0.0000
vt 0.0057 0.0039 0.0000
vt 0.4291 0.0039 0.0000
# 10 texture coords

o MS_Pared027
g MS_Pared027
usemtl wire_000000000
s 1
f 57/71/29 58/72/30 59/73/30 60/74/29 
s off
f 61/75/31 57/71/29 60/74/29 62/76/31 
f 63/77/32 61/78/31 62/79/31 64/80/32 
f 64/80/32 59/73/30 58/72/30 63/77/32 
# 4 polygons

#
# object MS_Pared028
#

v  -7.1138 11.1933 1.2834
v  -7.1138 11.1933 -0.2166
v  -7.1138 7.6933 -0.2166
v  -7.1138 7.6933 1.2834
v  -6.8638 11.1933 1.2834
v  -6.8638 7.6933 1.2834
v  -6.8638 11.1933 -0.2166
v  -6.8638 7.6933 -0.2166
# 8 vertices

vn -0.7071 -0.0000 0.7071
vn -0.7071 0.0000 -0.7071
vn 0.7071 -0.0000 0.7071
vn 0.7071 0.0000 -0.7071
# 4 vertex normals

vt 0.9252 0.9961 0.0000
vt 0.5020 0.9961 0.0000
vt 0.5020 0.0039 0.0000
vt 0.9252 0.0039 0.0000
vt 0.9931 0.9961 0.0000
vt 0.9931 0.0039 0.0000
vt 0.4291 0.9961 0.0000
vt 0.0057 0.9961 0.0000
vt 0.0057 0.0039 0.0000
vt 0.4291 0.0039 0.0000
# 10 texture coords

o MS_Pared028
g MS_Pared028
usemtl wire_000000000
s 1
f 65/81/33 66/82/34 67/83/34 68/84/33 
s off
f 69/85/35 65/81/33 68/84/33 70/86/35 
f 71/87/36 69/88/35 70/89/35 72/90/36 
f 72/90/36 67/83/34 66/82/34 71/87/36 
# 4 polygons

