# 3ds Max Wavefront OBJ Exporter v0.99 - (c)2007 guruware
# File Created: 01.10.2023 18:09:19

mtllib ParedBano.mtl

#
# object MS_Pared160
#

v  3.6362 3.6933 2.7834
v  3.6362 7.1933 2.7834
v  3.6362 7.1933 -1.7166
v  3.6362 3.6933 -1.7166
v  5.8886 7.1933 2.7834
v  5.8886 3.6933 2.7834
v  -0.6138 7.1933 -1.7166
v  -0.6138 3.6933 -1.7166
v  -0.6138 7.1933 2.7834
v  -0.8638 7.1933 2.7834
v  -0.8638 3.6933 2.7834
v  -0.6138 3.6933 2.7834
v  -0.6138 6.1933 -0.2166
v  -0.6138 3.6933 -0.2166
v  -0.6138 6.1933 1.2834
v  -0.6138 3.6933 1.2834
# 16 vertices

vn -0.7071 0.0000 0.7071
vn -0.7071 -0.0000 0.7071
vn 0.0000 -0.0000 1.0000
vn 0.7071 -0.0000 0.7071
vn 1.0000 -0.0000 -0.0000
vn 1.0000 -0.0000 0.0000
vn 1.0000 0.0000 -0.0000
# 7 vertex normals

vt 1.1427 0.0001 0.0000
vt 1.1427 0.9999 0.0000
vt -0.1427 0.9999 0.0000
vt -0.1427 0.0001 0.0000
vt 0.7901 0.9961 0.0000
vt 0.1782 0.9961 0.0000
vt 0.1782 0.0039 0.0000
vt 0.7901 0.0039 0.0000
vt 0.7143 -0.0000 0.0000
vt 0.7143 1.0000 0.0000
vt -0.5000 1.0000 0.0000
vt -0.5000 -0.0000 0.0000
vt 0.9931 0.9961 0.0000
vt 0.9252 0.9961 0.0000
vt 0.9252 0.0039 0.0000
vt 0.9931 0.0039 0.0000
vt 1.1424 0.0004 0.0000
vt 1.1424 0.9996 0.0000
vt 0.7141 0.7141 0.0000
vt 0.7141 0.0004 0.0000
vt -0.1424 0.9996 0.0000
vt 0.2859 0.7141 0.0000
vt -0.1424 0.0004 0.0000
vt 0.2859 0.0004 0.0000
# 24 texture coords

o MS_Pared160
g MS_Pared160
usemtl wire_000000000
s 1
f 1/1/1 2/2/2 3/3/2 4/4/2 
s off
f 5/5/3 2/6/2 1/7/1 6/8/3 
f 4/9/2 3/10/2 7/11/4 8/12/4 
f 9/13/4 10/14/3 11/15/3 12/16/4 
f 8/17/4 7/18/4 13/19/5 14/20/6 
f 7/18/4 9/21/4 15/22/7 13/19/5 
f 9/21/4 12/23/4 16/24/5 15/22/7 
# 7 polygons

