# 3ds Max Wavefront OBJ Exporter v0.99 - (c)2007 guruware
# File Created: 25.09.2023 14:45:25

mtllib SotanoProps.mtl

#
# object Caja_Carton
#

v  -3.7623 -0.3117 -0.3004
v  -3.7623 -0.3117 -1.3004
v  -2.4623 -0.3117 -1.3004
v  -2.4623 -0.3117 -0.3004
v  -3.7623 0.4383 -0.3004
v  -2.4623 0.4383 -0.3004
v  -2.4623 0.4383 -0.7344
v  -3.7623 0.4383 -0.7344
v  -2.4623 0.3478 -0.7340
v  -3.7623 0.4383 -1.3004
v  -2.4623 0.4383 -1.3004
v  -3.7623 0.3478 -0.8660
v  -3.7623 0.4383 -0.8664
v  -2.4623 0.4383 -0.8664
v  -2.4623 0.4383 -0.8004
v  -3.7623 0.4383 -0.8004
v  -2.4623 0.3478 -0.8660
v  -2.4623 0.3478 -0.8000
v  -3.7623 0.3478 -0.7340
v  -3.7623 0.3478 -0.8000
# 20 vertices

vn -0.5774 -0.5774 0.5774
vn -0.5774 -0.5774 -0.5774
vn 0.5774 -0.5774 -0.5774
vn 0.5774 -0.5774 0.5774
vn -0.5774 0.5774 0.5774
vn 0.5774 0.5774 0.5774
vn 0.7071 0.7071 -0.0000
vn -0.7071 0.7071 -0.0000
vn 1.0000 0.0000 -0.0000
vn -0.5774 0.5774 -0.5774
vn 0.5774 0.5774 -0.5774
vn -1.0000 0.0000 -0.0000
vn 1.0000 -0.0000 -0.0000
vn -1.0000 -0.0000 -0.0000
# 14 vertex normals

vt 0.8168 0.1094 0.0000
vt 0.8168 0.2087 0.0000
vt 0.9460 0.2087 0.0000
vt 0.9460 0.1094 0.0000
vt 0.9460 0.1525 0.0000
vt 0.8168 0.1525 0.0000
vt 0.8168 0.1656 0.0000
vt 0.9460 0.1656 0.0000
vt 0.0243 0.8925 0.0000
vt 0.1793 0.8925 0.0000
vt 0.1793 0.9004 0.0000
vt 0.0243 0.9004 0.0000
vt 0.1793 0.9082 0.0000
vt 0.0243 0.9082 0.0000
vt 0.1793 0.9003 0.0000
vt 0.0243 0.8924 0.0000
vt 0.0243 0.9003 0.0000
vt 0.1793 0.8924 0.0000
vt 0.8168 0.1590 0.0000
vt 0.9460 0.1590 0.0000
# 20 texture coords

o Caja_Carton
g Caja_Carton
usemtl wire_000000000
s 1
f 1/1/1 2/2/2 3/3/3 4/4/4 
f 5/1/5 6/4/6 7/5/7 8/6/8 
s 2
f 1/1/1 4/4/4 6/4/6 5/1/5 
s 4
f 4/4/4 9/5/9 7/5/7 6/4/6 
s 2
f 3/3/3 2/2/2 10/2/10 11/3/11 
s 4
f 2/2/2 12/7/12 13/7/8 10/2/10 
s 1
f 14/8/7 11/3/11 10/2/10 13/7/8 
f 8/9/8 7/10/7 15/11/7 16/12/8 
f 14/13/7 13/14/8 16/12/8 15/11/7 
s 4
f 17/13/9 14/13/7 15/11/7 18/15/13 
f 19/16/12 8/9/8 16/12/8 20/17/14 
f 7/10/7 9/18/9 18/15/13 15/11/7 
f 13/14/8 12/14/12 20/17/14 16/12/8 
f 1/1/1 5/1/5 8/6/8 19/6/12 
f 2/2/2 1/1/1 19/6/12 20/19/14 12/7/12 
f 4/4/4 3/3/3 17/8/9 18/20/13 9/5/9 
f 3/3/3 11/3/11 14/8/7 17/8/9 
# 17 polygons

#
# object Caja_Busibles
#

v  2.7458 1.0962 -1.7297
v  3.2351 1.0962 -1.7297
v  3.2351 1.0962 -1.6384
v  2.7458 1.0962 -1.6384
v  3.2351 1.7658 -1.7297
v  3.2351 1.7658 -1.6384
v  2.7458 1.7658 -1.7297
v  2.7458 1.7658 -1.6384
v  3.1686 1.1569 -1.6539
v  3.1686 1.7052 -1.6539
v  2.8123 1.7052 -1.6539
v  2.8123 1.1569 -1.6539
v  3.1763 1.1499 -1.6384
v  2.8047 1.1499 -1.6384
v  3.1763 1.7121 -1.6384
v  2.8047 1.7121 -1.6384
v  2.7765 1.2340 -1.6606
v  2.7636 1.2340 -1.6477
v  2.7459 1.2340 -1.6430
v  2.7283 1.2340 -1.6477
v  2.7154 1.2340 -1.6606
v  2.7107 1.2340 -1.6782
v  2.7154 1.2340 -1.6959
v  2.7283 1.2340 -1.7088
v  2.7459 1.2340 -1.7135
v  2.7636 1.2340 -1.7088
v  2.7765 1.2340 -1.6959
v  2.7812 1.2340 -1.6782
v  2.7765 1.6287 -1.6959
v  2.7812 1.6287 -1.6782
v  2.7636 1.6287 -1.7088
v  2.7459 1.6287 -1.7135
v  2.7283 1.6287 -1.7088
v  2.7154 1.6287 -1.6959
v  2.7107 1.6287 -1.6782
v  2.7154 1.6287 -1.6606
v  2.7283 1.6287 -1.6477
v  2.7459 1.6287 -1.6430
v  2.7636 1.6287 -1.6477
v  2.7765 1.6287 -1.6606
# 40 vertices

vn -0.7071 -0.7071 -0.0000
vn 0.7071 -0.7071 -0.0000
vn 0.5774 -0.5774 0.5774
vn -0.5774 -0.5774 0.5774
vn 0.7071 0.7071 0.0000
vn 0.5774 0.5774 0.5774
vn -0.7071 0.7071 0.0000
vn -0.5774 0.5774 0.5774
vn -0.5034 0.5034 0.7023
vn -0.5034 -0.5034 0.7023
vn 0.5034 -0.5034 0.7023
vn 0.5034 0.5034 0.7023
vn -0.2284 0.2284 0.9464
vn 0.2284 0.2284 0.9464
vn -0.2284 -0.2284 0.9464
vn 0.2284 -0.2284 0.9464
vn 0.7072 -0.6714 0.2215
vn 0.5438 -0.6449 0.5370
vn 0.0000 -0.6159 0.7878
vn -0.5438 -0.6449 0.5370
vn -0.7072 -0.6714 0.2216
vn -0.7352 -0.6779 -0.0000
vn -0.7072 -0.6714 -0.2216
vn -0.5438 -0.6449 -0.5371
vn 0.0000 -0.6159 -0.7879
vn 0.5438 -0.6449 -0.5370
vn 0.7072 -0.6714 -0.2215
vn 0.7351 -0.6779 -0.0000
vn 0.7072 0.6714 -0.2215
vn 0.7351 0.6779 -0.0000
vn 0.5438 0.6449 -0.5370
vn 0.0000 0.6159 -0.7879
vn -0.5438 0.6449 -0.5371
vn -0.7072 0.6714 -0.2216
vn -0.7352 0.6779 -0.0000
vn -0.7072 0.6714 0.2216
vn -0.5438 0.6449 0.5370
vn 0.0000 0.6159 0.7878
vn 0.5438 0.6449 0.5370
vn 0.7072 0.6714 0.2215
# 40 vertex normals

vt 0.7817 0.8155 0.0000
vt 0.9818 0.8155 0.0000
vt 0.9818 0.7781 0.0000
vt 0.7817 0.7781 0.0000
vt 0.7709 0.0576 0.0000
vt 0.7709 0.9424 0.0000
vt 0.1959 0.9424 0.0000
vt 0.1959 0.0576 0.0000
vt 0.9577 0.7781 0.0000
vt 0.8058 0.7781 0.0000
vt 0.9546 0.7845 0.0000
vt 0.8089 0.7845 0.0000
vt 0.0968 0.7090 0.0000
vt 0.0915 0.7037 0.0000
vt 0.0843 0.7018 0.0000
vt 0.0771 0.7037 0.0000
vt 0.0718 0.7090 0.0000
vt 0.0699 0.7162 0.0000
vt 0.0718 0.7234 0.0000
vt 0.0771 0.7287 0.0000
vt 0.0843 0.7306 0.0000
vt 0.0915 0.7287 0.0000
vt 0.0968 0.7234 0.0000
vt 0.0988 0.7162 0.0000
# 24 texture coords

o Caja_Busibles
g Caja_Busibles
usemtl wire_000000000
s 8
f 21/21/15 22/22/16 23/23/17 24/24/18 
s 16
f 22/22/16 25/22/19 26/23/20 23/23/17 
s 32
f 25/22/19 27/21/21 28/24/22 26/23/20 
s 64
f 27/21/21 21/21/15 24/24/18 28/24/22 
s off
f 29/25/23 30/26/24 31/27/25 32/28/26 
f 24/24/18 23/23/17 33/29/27 34/30/28 
f 23/23/17 26/23/20 35/29/29 33/29/27 
f 26/23/20 28/24/22 36/30/30 35/29/29 
f 28/24/22 24/24/18 34/30/28 36/30/30 
f 34/30/28 33/29/27 29/31/23 32/32/26 
f 33/29/27 35/29/29 30/31/24 29/31/23 
f 35/29/29 36/30/30 31/32/25 30/31/24 
f 36/30/30 34/30/28 32/32/26 31/32/25 
s 1
f 37/33/31 38/34/32 39/35/33 40/36/34 41/37/35 42/38/36 43/39/37 44/40/38 45/41/39 46/42/40 47/43/41 48/44/42 
s 8
f 48/44/42 47/43/41 49/43/43 50/44/44 
f 47/43/41 46/42/40 51/42/45 49/43/43 
f 46/42/40 45/41/39 52/41/46 51/42/45 
f 45/41/39 44/40/38 53/40/47 52/41/46 
f 44/40/38 43/39/37 54/39/48 53/40/47 
f 43/39/37 42/38/36 55/38/49 54/39/48 
f 42/38/36 41/37/35 56/37/50 55/38/49 
f 41/37/35 40/36/34 57/36/51 56/37/50 
f 40/36/34 39/35/33 58/35/52 57/36/51 
f 39/35/33 38/34/32 59/34/53 58/35/52 
f 38/34/32 37/33/31 60/33/54 59/34/53 
f 37/33/31 48/44/42 50/44/44 60/33/54 
s 1
f 60/33/54 50/44/44 49/43/43 51/42/45 52/41/46 53/40/47 54/39/48 55/38/49 56/37/50 57/36/51 58/35/52 59/34/53 
# 27 polygons

#
# object Caja_Carton001
#

v  -3.5521 0.4383 -0.1083
v  -3.8941 0.4383 -1.0479
v  -2.6725 0.4383 -1.4926
v  -2.3305 0.4383 -0.5529
v  -3.5521 1.1883 -0.1083
v  -2.3305 1.1883 -0.5529
v  -2.4789 1.1883 -0.9607
v  -3.7005 1.1883 -0.5161
v  -2.4788 1.0978 -0.9603
v  -3.8941 1.1883 -1.0479
v  -2.6725 1.1883 -1.4926
v  -3.7455 1.0978 -0.6397
v  -3.7457 1.1883 -0.6401
v  -2.5241 1.1883 -1.0847
v  -2.5015 1.1883 -1.0227
v  -3.7231 1.1883 -0.5781
v  -2.5239 1.0978 -1.0843
v  -2.5013 1.0978 -1.0223
v  -3.7004 1.0978 -0.5157
v  -3.7229 1.0978 -0.5777
# 20 vertices

vn -0.3451 -0.5774 0.7400
vn -0.7400 -0.5774 -0.3451
vn 0.3451 -0.5774 -0.7400
vn 0.7400 -0.5774 0.3451
vn -0.3451 0.5774 0.7400
vn 0.7400 0.5774 0.3451
vn 0.6645 0.7071 -0.2418
vn -0.6645 0.7071 0.2418
vn 0.9397 0.0000 -0.3420
vn -0.7400 0.5774 -0.3451
vn 0.3451 0.5774 -0.7400
vn -0.9397 0.0000 0.3420
vn 0.9397 -0.0000 -0.3420
vn -0.9397 -0.0000 0.3420
# 14 vertex normals

vt 0.8168 0.1094 0.0000
vt 0.8168 0.2087 0.0000
vt 0.9460 0.2087 0.0000
vt 0.9460 0.1094 0.0000
vt 0.9460 0.1525 0.0000
vt 0.8168 0.1525 0.0000
vt 0.8168 0.1656 0.0000
vt 0.9460 0.1656 0.0000
vt 0.0243 0.8925 0.0000
vt 0.1793 0.8925 0.0000
vt 0.1793 0.9004 0.0000
vt 0.0243 0.9004 0.0000
vt 0.1793 0.9082 0.0000
vt 0.0243 0.9082 0.0000
vt 0.1793 0.9003 0.0000
vt 0.0243 0.8924 0.0000
vt 0.0243 0.9003 0.0000
vt 0.1793 0.8924 0.0000
vt 0.8168 0.1590 0.0000
vt 0.9460 0.1590 0.0000
# 20 texture coords

o Caja_Carton001
g Caja_Carton001
usemtl wire_000000000
s 1
f 61/45/55 62/46/56 63/47/57 64/48/58 
f 65/45/59 66/48/60 67/49/61 68/50/62 
s 2
f 61/45/55 64/48/58 66/48/60 65/45/59 
s 4
f 64/48/58 69/49/63 67/49/61 66/48/60 
s 2
f 63/47/57 62/46/56 70/46/64 71/47/65 
s 4
f 62/46/56 72/51/66 73/51/62 70/46/64 
s 1
f 74/52/61 71/47/65 70/46/64 73/51/62 
f 68/53/62 67/54/61 75/55/61 76/56/62 
f 74/57/61 73/58/62 76/56/62 75/55/61 
s 4
f 77/57/63 74/57/61 75/55/61 78/59/67 
f 79/60/66 68/53/62 76/56/62 80/61/68 
f 67/54/61 69/62/63 78/59/67 75/55/61 
f 73/58/62 72/58/66 80/61/68 76/56/62 
f 61/45/55 65/45/59 68/50/62 79/50/66 
f 62/46/56 61/45/55 79/50/66 80/63/68 72/51/66 
f 64/48/58 63/47/57 77/52/63 78/64/67 69/49/63 
f 63/47/57 71/47/65 74/52/61 77/52/63 
# 17 polygons

