# 3ds Max Wavefront OBJ Exporter v0.99 - (c)2007 guruware
# File Created: 01.10.2023 17:34:01

mtllib SueloBano.mtl

#
# object MS_Suelo292
#

v  3.8862 3.6933 2.7834
v  3.8860 3.6933 -4.7170
v  -0.8638 3.6933 -4.7166
v  -0.8638 3.6933 2.7834
v  -0.8638 3.4433 2.7834
v  3.8862 3.4433 2.7834
# 6 vertices

vn -0.0000 0.7071 0.7071
vn -0.0000 1.0000 -0.0000
vn 0.0000 0.0000 1.0000
vn 0.0000 -0.0000 1.0000
# 4 vertex normals

vt 2.1600 0.0035 0.0000
vt 2.1598 4.9787 0.0000
vt -0.9908 4.9784 0.0000
vt -0.9908 0.0035 0.0000
vt -0.9908 -0.1623 0.0000
vt 2.1600 -0.1623 0.0000
# 6 texture coords

o MS_Suelo292
g MS_Suelo292
usemtl wire_000000000
s 1
f 1/1/1 2/2/2 3/3/2 4/4/1 
s 2
f 4/4/1 5/5/3 6/6/4 1/1/1 
# 2 polygons

