# 3ds Max Wavefront OBJ Exporter v0.99 - (c)2007 guruware
# File Created: 01.10.2023 18:08:41

mtllib SueloMadera.mtl

#
# object MS_Suelo058
#

v  4.2031 -0.3067 2.7834
v  4.2029 -0.3067 -4.7170
v  -4.4325 -0.3067 -4.7166
v  -4.4325 -0.3067 2.7834
v  -4.4325 -0.5567 2.7834
v  4.2031 -0.5566 2.7834
# 6 vertices

vn -0.0000 0.7071 0.7071
vn -0.0000 1.0000 -0.0000
vn 0.0000 0.0000 1.0000
# 3 vertex normals

vt 2.3702 0.0035 0.0000
vt 2.3700 4.9787 0.0000
vt -3.3580 4.9784 0.0000
vt -3.3580 0.0035 0.0000
vt -3.3580 -0.1623 0.0000
vt 2.3702 -0.1623 0.0000
# 6 texture coords

o MS_Suelo058
g MS_Suelo058
usemtl wire_000000000
s 1
f 1/1/1 2/2/2 3/3/2 4/4/1 
s 2
f 4/4/1 5/5/3 6/6/3 1/1/1 
# 2 polygons

#
# object MS_Suelo293
#

v  -0.8638 3.6933 2.7834
v  -0.8639 3.6933 -1.9591
v  -6.8638 3.6933 -1.9593
v  -6.8638 3.6933 2.7834
v  -6.8638 3.4433 2.7834
v  -0.8638 3.4433 2.7834
v  -0.8640 3.6933 -4.7170
v  -5.3638 3.6933 -4.7167
v  -5.3638 3.6933 -3.2166
v  -6.8638 3.6933 -3.2170
# 10 vertices

vn -0.0000 0.7071 0.7071
vn -0.0000 1.0000 -0.0000
vn -0.0000 0.0000 1.0000
vn -0.0000 1.0000 0.0000
# 4 vertex normals

vt 1.9941 0.0035 0.0000
vt 1.9941 3.1493 0.0000
vt -1.9858 3.1494 0.0000
vt -1.9858 0.0035 0.0000
vt -1.9858 -0.1623 0.0000
vt 1.9941 -0.1623 0.0000
vt 1.9940 4.9787 0.0000
vt -0.9908 4.9785 0.0000
vt -0.9908 3.9834 0.0000
vt -1.9858 3.9837 0.0000
# 10 texture coords

o MS_Suelo293
g MS_Suelo293
usemtl wire_000000000
s 1
f 7/7/4 8/8/5 9/9/5 10/10/4 
s 2
f 10/10/4 11/11/6 12/12/6 7/7/4 
s 1
f 13/13/5 14/14/5 15/15/7 
f 8/8/5 15/15/7 16/16/5 9/9/5 
f 8/8/5 13/13/5 15/15/7 
# 3 polygons - 2 triangles

#
# object MS_Suelo294
#

v  -6.8638 3.6933 2.7834
v  -6.8640 3.6933 -4.7170
v  -14.6138 3.6933 -4.7166
v  -14.6138 3.6933 2.7834
v  -14.6138 3.4433 2.7834
v  -6.8638 3.4433 2.7834
# 6 vertices

vn -0.0000 0.7071 0.7071
vn -0.0000 1.0000 -0.0000
vn -0.0000 0.0000 1.0000
# 3 vertex normals

vt 1.9941 0.0035 0.0000
vt 1.9940 4.9787 0.0000
vt -3.1466 4.9784 0.0000
vt -3.1466 0.0035 0.0000
vt -3.1466 -0.1623 0.0000
vt 1.9941 -0.1623 0.0000
# 6 texture coords

o MS_Suelo294
g MS_Suelo294
usemtl wire_000000000
s 1
f 17/17/8 18/18/9 19/19/9 20/20/8 
s 2
f 20/20/8 21/21/10 22/22/10 17/17/8 
# 2 polygons

#
# object MS_Suelo296
#

v  10.8862 7.6933 2.7834
v  10.8860 7.6933 -4.7170
v  3.6362 7.6933 -4.7166
v  3.6362 7.6933 2.7834
v  3.6362 7.4433 2.7834
v  10.8862 7.4433 2.7834
# 6 vertices

vn 0.0000 0.7071 0.7071
vn -0.0000 1.0000 -0.0000
vn 0.0000 0.0000 1.0000
vn 0.0000 -0.0000 1.0000
# 4 vertex normals

vt 1.9941 0.0035 0.0000
vt 1.9940 4.9787 0.0000
vt -2.8150 4.9784 0.0000
vt -2.8150 0.0035 0.0000
vt -2.8150 -0.1623 0.0000
vt 1.9941 -0.1623 0.0000
# 6 texture coords

o MS_Suelo296
g MS_Suelo296
usemtl wire_000000000
s 1
f 23/23/11 24/24/12 25/25/12 26/26/11 
s 2
f 26/26/11 27/27/13 28/28/14 23/23/11 
# 2 polygons

#
# object MS_Suelo306
#

v  3.6362 7.6933 2.7834
v  3.6361 7.6933 -1.9718
v  -2.3638 7.6933 -1.9720
v  -2.3638 7.6933 2.7834
v  -2.3638 7.4433 2.7834
v  3.6362 7.4433 2.7834
v  3.6360 7.6933 -4.7170
v  0.6362 7.6933 -4.7168
v  0.6362 7.6933 -3.2166
v  -2.3638 7.6933 -3.2170
# 10 vertices

vn -0.0000 0.7071 0.7071
vn -0.0000 1.0000 -0.0000
vn -0.0000 0.0000 1.0000
vn 0.0000 1.0000 -0.0000
vn -0.0000 1.0000 0.0000
# 5 vertex normals

vt 1.9941 0.0035 0.0000
vt 1.9941 3.1577 0.0000
vt -1.9858 3.1579 0.0000
vt -1.9858 0.0035 0.0000
vt -1.9858 -0.1623 0.0000
vt 1.9941 -0.1623 0.0000
vt 1.9940 4.9787 0.0000
vt 0.0042 4.9786 0.0000
vt 0.0042 3.9825 0.0000
vt -1.9858 3.9837 0.0000
# 10 texture coords

o MS_Suelo306
g MS_Suelo306
usemtl wire_000000000
s 1
f 29/29/15 30/30/16 31/31/16 32/32/15 
s 2
f 32/32/15 33/33/17 34/34/17 29/29/15 
s 1
f 35/35/18 36/36/16 37/37/19 
f 30/30/16 37/37/19 38/38/16 31/31/16 
f 30/30/16 35/35/18 37/37/19 
# 3 polygons - 2 triangles

#
# object MS_Suelo307
#

v  10.8862 11.6933 2.7834
v  10.8861 11.6933 -1.9591
v  3.0675 11.6933 -1.9592
v  3.0675 11.6933 2.7834
v  3.0675 11.4433 2.7834
v  10.8862 11.4433 2.7834
v  10.8860 11.6933 -4.7170
v  8.1362 11.6933 -4.7168
v  8.1362 11.6933 -3.2166
v  3.0675 11.6933 -3.2170
# 10 vertices

vn -0.0000 0.7071 0.7071
vn -0.0000 1.0000 -0.0000
vn -0.0000 0.0000 1.0000
# 3 vertex normals

vt 1.8283 0.0035 0.0000
vt 1.8282 3.1493 0.0000
vt -3.3580 3.1494 0.0000
vt -3.3580 0.0035 0.0000
vt -3.3580 -0.1623 0.0000
vt 1.8283 -0.1623 0.0000
vt 1.8282 4.9787 0.0000
vt 0.0042 4.9786 0.0000
vt 0.0042 3.9825 0.0000
vt -3.3580 3.9837 0.0000
# 10 texture coords

o MS_Suelo307
g MS_Suelo307
usemtl wire_000000000
s 1
f 39/39/20 40/40/21 41/41/21 42/42/20 
s 2
f 42/42/20 43/43/22 44/44/22 39/39/20 
s 1
f 45/45/21 46/46/21 47/47/21 
f 40/40/21 47/47/21 41/41/21 
f 47/47/21 48/48/21 41/41/21 
f 40/40/21 45/45/21 47/47/21 
# 2 polygons - 4 triangles

