# 3ds Max Wavefront OBJ Exporter v0.99 - (c)2007 guruware
# File Created: 01.10.2023 17:32:21

mtllib Techo.mtl

#
# object MS_Suelo281
#

v  -2.3638 7.1933 -1.7166
v  -2.3638 7.1933 -3.2166
v  -0.8638 7.1933 -3.2166
v  -0.8638 7.1933 -1.7166
v  -2.3638 7.4433 -1.7166
v  -0.8638 7.4433 -1.7166
v  -0.8638 7.4433 -3.2166
v  -2.3638 7.4433 -3.2166
# 8 vertices

vn 0.0000 -0.7071 0.7071
vn 0.0000 -1.0000 -0.0000
vn 0.0000 0.7071 0.7071
vn 0.0000 1.0000 -0.0000
# 4 vertex normals

vt 0.0042 -0.1623 0.0000
vt 0.0042 -1.1573 0.0000
vt 0.9992 -1.1573 0.0000
vt 0.9992 -0.1623 0.0000
vt 0.0042 0.0035 0.0000
vt 0.9992 0.0035 0.0000
vt 0.9992 0.9985 0.0000
vt 0.0042 0.9985 0.0000
# 8 texture coords

o MS_Suelo281
g MS_Suelo281
usemtl wire_000000000
s 1
f 1/1/1 2/2/2 3/3/2 4/4/1 
s 2
f 5/5/3 1/1/1 4/4/1 6/6/3 
s 1
f 6/6/3 7/7/4 8/8/4 5/5/3 
# 3 polygons

#
# object MS_Suelo282
#

v  -2.3638 7.1933 -3.2166
v  -2.3638 7.1933 -4.7166
v  -0.8638 7.1933 -4.7166
v  -0.8638 7.1933 -3.2166
v  -2.3638 7.4433 -3.2166
v  -0.8638 7.4433 -3.2166
v  -0.8638 7.4433 -4.7166
v  -2.3638 7.4433 -4.7166
# 8 vertices

vn 0.0000 -0.7071 0.7071
vn 0.0000 -1.0000 -0.0000
vn 0.0000 0.7071 0.7071
vn 0.0000 1.0000 -0.0000
# 4 vertex normals

vt 0.0042 -0.1623 0.0000
vt 0.0042 -1.1573 0.0000
vt 0.9992 -1.1573 0.0000
vt 0.9992 -0.1623 0.0000
vt 0.0042 0.0035 0.0000
vt 0.9992 0.0035 0.0000
vt 0.9992 0.9985 0.0000
vt 0.0042 0.9985 0.0000
# 8 texture coords

o MS_Suelo282
g MS_Suelo282
usemtl wire_000000000
s 1
f 9/9/5 10/10/6 11/11/6 12/12/5 
s 2
f 13/13/7 9/9/5 12/12/5 14/14/7 
s 1
f 14/14/7 15/15/8 16/16/8 13/13/7 
# 3 polygons

#
# object MS_Suelo291
#

v  -5.3638 3.1933 2.7834
v  -5.3636 3.1933 -4.7170
v  3.8862 3.1934 -4.7166
v  3.8862 3.1933 2.7834
v  3.8862 3.4433 2.7834
v  -5.3638 3.4433 2.7834
# 6 vertices

vn 0.0000 -0.7071 0.7071
vn 0.0000 -1.0000 -0.0000
vn -0.0000 -0.0000 1.0000
vn -0.0000 0.0000 1.0000
# 4 vertex normals

vt 1.9941 0.0035 0.0000
vt 1.9940 4.9787 0.0000
vt -4.1416 4.9784 0.0000
vt -4.1416 0.0035 0.0000
vt -4.1416 -0.1623 0.0000
vt 1.9941 -0.1623 0.0000
# 6 texture coords

o MS_Suelo291
g MS_Suelo291
usemtl wire_000000000
s 1
f 17/17/9 18/18/10 19/19/10 20/20/9 
s 2
f 20/20/9 21/21/11 22/22/12 17/17/9 
# 2 polygons

#
# object MS_Suelo299
#

v  -14.6138 7.1933 2.7834
v  -14.6136 7.1933 -4.7170
v  -6.8638 7.1933 -4.7166
v  -6.8638 7.1933 2.7834
v  -6.8638 7.4433 2.7834
v  -14.6138 7.4433 2.7834
# 6 vertices

vn 0.0000 -0.7071 0.7071
vn 0.0000 -1.0000 -0.0000
vn 0.0000 0.0000 1.0000
vn 0.0000 -0.0000 1.0000
# 4 vertex normals

vt 1.1650 0.0035 0.0000
vt 1.1648 4.9787 0.0000
vt -3.9758 4.9784 0.0000
vt -3.9758 0.0035 0.0000
vt -3.9758 -0.1623 0.0000
vt 1.1650 -0.1623 0.0000
# 6 texture coords

o MS_Suelo299
g MS_Suelo299
usemtl wire_000000000
s 1
f 23/23/13 24/24/14 25/25/14 26/26/13 
s 2
f 26/26/13 27/27/15 28/28/16 23/23/13 
# 2 polygons

#
# object MS_Suelo300
#

v  -0.8638 7.1933 2.7834
v  -0.8636 7.1933 -4.7170
v  3.8862 7.1934 -4.7166
v  3.8862 7.1933 2.7834
v  3.8862 7.4433 2.7834
v  -0.8638 7.4433 2.7834
# 6 vertices

vn 0.0000 -0.7071 0.7071
vn 0.0000 -1.0000 -0.0000
vn -0.0000 -0.0000 1.0000
vn -0.0000 0.0000 1.0000
# 4 vertex normals

vt -0.8250 0.0035 0.0000
vt -0.8251 4.9787 0.0000
vt -3.9758 4.9784 0.0000
vt -3.9758 0.0035 0.0000
vt -3.9758 -0.1623 0.0000
vt -0.8250 -0.1623 0.0000
# 6 texture coords

o MS_Suelo300
g MS_Suelo300
usemtl wire_000000000
s 1
f 29/29/17 30/30/18 31/31/18 32/32/17 
s 2
f 32/32/17 33/33/19 34/34/20 29/29/17 
# 2 polygons

#
# object MS_Suelo301
#

v  -6.8638 7.1933 2.7834
v  -6.8636 7.1933 -4.7170
v  -0.8638 7.1933 -4.7166
v  -0.8638 7.1933 2.7834
v  -0.8638 7.4433 2.7834
v  -6.8638 7.4433 2.7834
# 6 vertices

vn 0.0000 -0.7071 0.7071
vn 0.0000 -1.0000 -0.0000
vn -0.0000 -0.0000 1.0000
vn -0.0000 0.0000 1.0000
# 4 vertex normals

vt 0.0042 0.0035 0.0000
vt 0.0040 4.9787 0.0000
vt -3.9758 4.9784 0.0000
vt -3.9758 0.0035 0.0000
vt -3.9758 -0.1623 0.0000
vt 0.0042 -0.1623 0.0000
# 6 texture coords

o MS_Suelo301
g MS_Suelo301
usemtl wire_000000000
s 1
f 35/35/21 36/36/22 37/37/22 38/38/21 
s 2
f 38/38/21 39/39/23 40/40/24 35/35/21 
# 2 polygons

#
# object MS_Suelo302
#

v  3.6362 11.1933 2.7834
v  3.6364 11.1933 -4.7170
v  10.8862 11.1934 -4.7166
v  10.8862 11.1933 2.7834
v  10.8862 11.4433 2.7834
v  3.6362 11.4433 2.7834
# 6 vertices

vn 0.0000 -0.7071 0.7071
vn 0.0000 -1.0000 -0.0000
vn 0.0000 0.0000 1.0000
vn 0.0000 -0.0000 1.0000
# 4 vertex normals

vt 0.9992 0.0035 0.0000
vt 0.9990 4.9787 0.0000
vt -3.8099 4.9784 0.0000
vt -3.8099 0.0035 0.0000
vt -3.8099 -0.1623 0.0000
vt 0.9992 -0.1623 0.0000
# 6 texture coords

o MS_Suelo302
g MS_Suelo302
usemtl wire_000000000
s 1
f 41/41/25 42/42/26 43/43/26 44/44/25 
s 2
f 44/44/25 45/45/27 46/46/28 41/41/25 
# 2 polygons

#
# object MS_Suelo303
#

v  3.3862 15.1933 2.7834
v  3.3864 15.1933 -4.7170
v  11.1362 15.1933 -4.7166
v  11.1362 15.1933 2.7834
v  11.1362 15.4433 2.7834
v  3.3862 15.4433 2.7834
# 6 vertices

vn 0.0000 -0.7071 0.7071
vn -0.0000 -1.0000 -0.0000
vn 0.0000 0.0000 1.0000
vn 0.0000 -0.0000 1.0000
# 4 vertex normals

vt 1.1650 0.0035 0.0000
vt 1.1648 4.9787 0.0000
vt -3.9758 4.9784 0.0000
vt -3.9758 0.0035 0.0000
vt -3.9758 -0.1623 0.0000
vt 1.1650 -0.1623 0.0000
# 6 texture coords

o MS_Suelo303
g MS_Suelo303
usemtl wire_000000000
s 1
f 47/47/29 48/48/30 49/49/30 50/50/29 
s 2
f 50/50/29 51/51/31 52/52/32 47/47/29 
# 2 polygons

#
# object MS_Suelo304
#

v  -2.3638 11.1933 2.7834
v  -2.3636 11.1933 -4.7170
v  3.6362 11.1933 -4.7166
v  3.6362 11.1933 2.7834
v  3.6362 11.4433 2.7834
v  -2.3638 11.4433 2.7834
# 6 vertices

vn -0.0000 -0.7071 0.7071
vn 0.0000 -1.0000 -0.0000
vn 0.0000 0.0000 1.0000
vn 0.0000 -0.0000 1.0000
# 4 vertex normals

vt 0.0042 0.0035 0.0000
vt 0.0040 4.9787 0.0000
vt -3.9758 4.9784 0.0000
vt -3.9758 0.0035 0.0000
vt -3.9758 -0.1623 0.0000
vt 0.0042 -0.1623 0.0000
# 6 texture coords

o MS_Suelo304
g MS_Suelo304
usemtl wire_000000000
s 1
f 53/53/33 54/54/34 55/55/34 56/56/33 
s 2
f 56/56/33 57/57/35 58/58/36 53/53/33 
# 2 polygons

#
# object MS_Suelo305
#

v  -7.1138 11.1933 2.7834
v  -7.1136 11.1933 -4.7170
v  -2.3638 11.1933 -4.7166
v  -2.3638 11.1933 2.7834
v  -2.3638 11.4433 2.7834
v  -7.1138 11.4433 2.7834
# 6 vertices

vn 0.0000 -0.7071 0.7071
vn 0.0000 -1.0000 -0.0000
vn 0.0000 0.0000 1.0000
vn 0.0000 -0.0000 1.0000
# 4 vertex normals

vt -0.8250 0.0035 0.0000
vt -0.8251 4.9787 0.0000
vt -3.9758 4.9784 0.0000
vt -3.9758 0.0035 0.0000
vt -3.9758 -0.1623 0.0000
vt -0.8250 -0.1623 0.0000
# 6 texture coords

o MS_Suelo305
g MS_Suelo305
usemtl wire_000000000
s 1
f 59/59/37 60/60/38 61/61/38 62/62/37 
s 2
f 62/62/37 63/63/39 64/64/40 59/59/37 
# 2 polygons

